# xmcd
#
# Track frame offsets: 
#        150
#        27375
#        52425
#        90300
#        123300
#        146775
#        167025
#
# Disc length: 2542 seconds
#
# Revision: 3
# Processed by: cddbd v1.5.2PL0 Copyright (c) Steve Scherf et al.
# Submitted via: ExactAudioCopy v1.3
#
DISCID=6109ec07
DTITLE=Jimmy Dawkins - Hot Wire 81
DYEAR=1994
DGENRE=Chicago Blues
TTITLE0=You Just A Baby Child
TTITLE1=Ruff Times
TTITLE2=Welfare Line
TTITLE3=Kold Actions
TTITLE4=Roc-Kin-Sole
TTITLE5=Peeper's Music
TTITLE6=My Way
EXTD=YEAR: 1994
EXTT0=
EXTT1=
EXTT2=
EXTT3=
EXTT4=
EXTT5=
EXTT6=
PLAYORDER=
